<svg width="18" height="18" viewBox="0 0 18 18" fill="none" xmlns="http://www.w3.org/2000/svg">
<path fill-rule="evenodd" clip-rule="evenodd" d="M4.09088 12.0303C3.79798 12.3232 3.32311 12.3232 3.03022 12.0303L0.470217 9.47033C0.177324 9.17744 0.177324 8.70256 0.470217 8.40967L3.03022 5.84967C3.32311 5.55678 3.79798 5.55678 4.09088 5.84967C4.38377 6.14256 4.38377 6.61744 4.09088 6.91033L2.06121 8.94L4.09088 10.9697C4.38377 11.2626 4.38377 11.7374 4.09088 12.0303Z" fill="#9FA2B4"/>
<path fill-rule="evenodd" clip-rule="evenodd" d="M11.9902 8.93994C11.9902 9.35415 11.6544 9.68994 11.2402 9.68994L1.07023 9.68994C0.656021 9.68994 0.320234 9.35415 0.320234 8.93994C0.320234 8.52573 0.656021 8.18994 1.07023 8.18994L11.2402 8.18994C11.6544 8.18994 11.9902 8.52573 11.9902 8.93994Z" fill="#9FA2B4"/>
<path fill-rule="evenodd" clip-rule="evenodd" d="M14.3812 14.3312C15.6676 13.1092 16.4902 11.3116 16.4902 9C16.4902 6.68843 15.6676 4.89077 14.3812 3.66877C13.0888 2.44112 11.2808 1.75 9.24023 1.75C8.82602 1.75 8.49023 1.41421 8.49023 1C8.49023 0.585787 8.82602 0.25 9.24023 0.25C11.6196 0.25 13.8117 1.05888 15.4143 2.58123C17.0228 4.10923 17.9902 6.31157 17.9902 9C17.9902 11.6884 17.0228 13.8908 15.4143 15.4188C13.8117 16.9411 11.6196 17.75 9.24023 17.75C8.82602 17.75 8.49023 17.4142 8.49023 17C8.49023 16.5858 8.82602 16.25 9.24023 16.25C11.2808 16.25 13.0888 15.5589 14.3812 14.3312Z" fill="#9FA2B4"/>
</svg>
