<svg width="24" height="18" viewBox="0 0 24 18" fill="none" xmlns="http://www.w3.org/2000/svg">
<path opacity="0.4" d="M3.6 7.79998C4.92375 7.79998 6 6.72373 6 5.39998C6 4.07623 4.92375 2.99998 3.6 2.99998C2.27625 2.99998 1.2 4.07623 1.2 5.39998C1.2 6.72373 2.27625 7.79998 3.6 7.79998ZM20.4 7.79998C21.7238 7.79998 22.8 6.72373 22.8 5.39998C22.8 4.07623 21.7238 2.99998 20.4 2.99998C19.0763 2.99998 18 4.07623 18 5.39998C18 6.72373 19.0763 7.79998 20.4 7.79998ZM21.6 8.99998H19.2C18.54 8.99998 17.9438 9.26623 17.5088 9.69748C19.02 10.5262 20.0925 12.0225 20.325 13.8H22.8C23.4638 13.8 24 13.2637 24 12.6V11.4C24 10.0762 22.9238 8.99998 21.6 8.99998ZM12 8.99998C14.3213 8.99998 16.2 7.12123 16.2 4.79998C16.2 2.47873 14.3213 0.599976 12 0.599976C9.67875 0.599976 7.8 2.47873 7.8 4.79998C7.8 7.12123 9.67875 8.99998 12 8.99998ZM14.88 10.2H14.5688C13.7888 10.575 12.9225 10.8 12 10.8C11.0775 10.8 10.215 10.575 9.43125 10.2H9.12C6.735 10.2 4.8 12.135 4.8 14.52V15.6C4.8 16.5937 5.60625 17.4 6.6 17.4H17.4C18.3938 17.4 19.2 16.5937 19.2 15.6V14.52C19.2 12.135 17.265 10.2 14.88 10.2ZM6.49125 9.69748C6.05625 9.26623 5.46 8.99998 4.8 8.99998H2.4C1.07625 8.99998 0 10.0762 0 11.4V12.6C0 13.2637 0.53625 13.8 1.2 13.8H3.67125C3.9075 12.0225 4.98 10.5262 6.49125 9.69748Z" fill="#9FA2B4"/>
</svg>
